<?xml version="1.0" encoding="utf-8"?>
<!-- Generator: Adobe Illustrator 21.1.0, SVG Export Plug-In . SVG Version: 6.00 Build 0)  -->
<svg version="1.1" id="圖層_1" xmlns="http://www.w3.org/2000/svg" xmlns:xlink="http://www.w3.org/1999/xlink" x="0px" y="0px"
	 viewBox="0 0 640 640" style="enable-background:new 0 0 640 640;" xml:space="preserve">
<style type="text/css">
	.st0{fill:#FFFFFF;}
</style>
<g>
	<g>
		<path class="st0" d="M478.7,488.4L478.7,488.4c-5.9,30.3-20.4,54.3-38.4,72.7l0,0c-18.1,18.5-39.6,31.5-60.2,40.8l0,0
			c-41.2,18.6-78.8,22.4-79.4,22.5l0,0l-0.5,0.1h-0.5l0,0c-33.6,0-63-12.7-84.1-25.1l0,0c-17.4-10.2-29.1-20.4-33-23.9l0,0
			c-22.1-10.3-39.7-26.8-53.5-46.8l0,0c-14.1-20.5-24.3-44.8-31.8-70.7l0,0C82.2,406,78.1,347,78.1,296.6l0,0
			c0-66.2,7.2-117.7,7.2-118l0,0l0.5-3.9l3-2.5c0.4-0.3,27.3-23.1,68.7-46l0,0c41.4-22.8,97.3-46,156.1-46.1l0,0
			c30.9,0,62.7,6.6,92.8,23.2l0,0c30.2,16.6,58.5,43.2,83.1,82.3l0,0l1.2,2l14.8,123.4c3.7-3.3,7.9-6.6,12.6-9.3l0,0
			c5.7-3.2,12.2-5.8,19.7-5.8l0,0c5.1,0,10.5,1.3,15.4,4.3l0,0c4.9,2.9,9.1,7.3,12.7,12.8l0,0c7.2,11.1,12.3,27,15.8,50.5l0,0
			l0.3,2.2l-0.6,2.1c-0.1,0.2-2.4,8.5-6.8,19.7l0,0c-4.5,11.2-11,25.2-20,37.4l0,0c-6,8.1-13.2,15.4-22.3,20.1l0,0
			c-2.9,1.5-6.1,2.7-9.4,3.4l0,0l-6.5,22.2l19.7,56.3c1.9,5.4-1,11.2-6.3,13.1l0,0c-5.4,1.9-11.2-1-13.1-6.3l0,0L478.7,488.4z"/>
		<path d="M299.5,624.5c-33.6,0-63-12.7-84.1-25.1l0,0c-17.4-10.2-29.1-20.4-33-23.9l0,0c-22.1-10.3-39.7-26.8-53.5-46.8l0,0
			c-14.1-20.5-24.3-44.8-31.8-70.7l0,0C82.2,406,78.1,347,78.1,296.6l0,0c0-66.2,7.2-117.7,7.2-118l0,0l0.5-3.9l3-2.5
			c0.4-0.3,27.3-23.1,68.7-46l0,0c41.4-22.8,97.3-46,156.1-46.1l0,0c30.9,0,62.7,6.6,92.8,23.2l0,0c30.2,16.6,58.5,43.2,83.1,82.3
			l0,0l1.2,2l14.8,123.4c3.7-3.3,7.9-6.6,12.6-9.3l0,0c5.7-3.2,12.2-5.8,19.7-5.8l0,0c5.1,0,10.5,1.3,15.4,4.3l0,0
			c4.9,2.9,9.1,7.3,12.7,12.8l0,0c7.2,11.1,12.3,27,15.8,50.5l0,0l0.3,2.2l-0.6,2.1c-0.1,0.2-2.4,8.5-6.8,19.7l0,0
			c-4.5,11.2-11,25.2-20,37.4l0,0c-6,8.1-13.2,15.4-22.3,20.1l0,0c-2.9,1.5-6.1,2.7-9.4,3.4l0,0l-6.5,22.2l19.7,56.3
			c1.9,5.4-1,11.2-6.3,13.1l0,0c-5.4,1.9-11.2-1-13.1-6.3l0,0l-21.9-62.5l12.3-42.5h7.7c5,0,10.2-2.4,15.7-7.5l0,0
			c5.5-5.1,10.8-12.6,15.3-20.7l0,0c8.1-14.6,13.4-30.5,15.2-36.1l0,0c-2.4-15.2-5.6-26.2-8.9-33.5l0,0c-3.5-7.8-7-11.4-9.5-12.8
			l0,0c-1.7-1-3-1.3-4.7-1.3l0,0c-2.3,0-5.6,0.9-9.1,2.9l0,0c-3.5,2-7.2,4.9-10.5,7.9l0,0c-6.6,6.1-11.4,12.8-11.8,13.3l0,0
			c0,0,0,0,0,0l0,0l-15.5,22L471,194.6c-22.7-35.6-48-58.8-74.4-73.3l0,0c-26.8-14.7-54.8-20.6-82.9-20.6l0,0
			c-51.6-0.1-103.1,20.2-142.4,41.5l0,0c-33.4,18.1-57.9,36.7-66.1,43.3l0,0c-0.2,1.3-0.3,2.9-0.6,4.8l0,0
			c-0.7,5.7-1.5,14.1-2.4,24.4l0,0c-1.8,20.7-3.5,49.6-3.5,82l0,0c0,37,2.3,78.5,9.5,117.6l0,0c7.1,39.1,19.2,75.7,37.8,102.8l0,0
			c12.5,18.1,27.7,31.9,46.5,40.4l0,0l1.6,0.7l1.3,1.2c0,0,0,0,0.1,0.1l0,0c0.1,0.1,0.2,0.2,0.4,0.3l0,0c0.3,0.3,0.8,0.8,1.5,1.4
			l0,0c1.4,1.2,3.4,2.9,6,5l0,0c5.3,4.2,13,9.9,22.6,15.5l0,0c19,11.2,45,22.2,73,22.3l0,0c0.1,0,0.2,0,0.3,0l0,0
			c0.6-0.1,1.4-0.2,2.5-0.3l0,0c2.2-0.3,5.5-0.8,9.6-1.6l0,0c8.2-1.5,19.7-4.1,32.7-8.3l0,0c26-8.3,57.9-22.8,81.4-46.9l0,0
			c15.7-16.1,27.8-36.2,32.9-62.3l0,0v0c1.1-5.6,6.5-9.2,12.1-8.1l0,0c5.6,1.1,9.2,6.5,8.1,12.1l0,0c-5.9,30.3-20.4,54.3-38.4,72.7
			l0,0c-18.1,18.5-39.6,31.5-60.2,40.8l0,0c-41.2,18.6-78.8,22.4-79.4,22.5l0,0l-0.5,0.1H299.5L299.5,624.5z"/>
	</g>
	<path d="M337.3,268.3c-6.6,0-12-5.4-12-12l0,0c0-6.6,5.4-12,12-12l0,0h103c6.6,0,12,5.4,12,12l0,0c0,6.6-5.4,12-12,12l0,0H337.3
		L337.3,268.3z"/>
	<path d="M138.8,264.3c-4.4,0-8-3.6-8-8l0,0c0-4.4,3.6-8,8-8l0,0h103c4.4,0,8,3.6,8,8l0,0c0,4.4-3.6,8-8,8l0,0H138.8L138.8,264.3z"
		/>
	<path d="M310.5,375.8c0-43.3,35.1-78.3,78.3-78.3l0,0c43.2,0,78.3,35.1,78.3,78.3l0,0c0,43.3-35.1,78.3-78.3,78.3l0,0
		C345.6,454.1,310.6,419.1,310.5,375.8L310.5,375.8z M348.1,335c-10.5,10.5-16.9,24.8-16.9,40.8l0,0c0,16,6.4,30.3,16.9,40.8l0,0
		c10.5,10.5,24.8,16.9,40.8,16.9l0,0c16,0,30.3-6.4,40.8-16.9l0,0c10.5-10.5,16.9-24.8,16.9-40.8l0,0c0-16-6.4-30.3-16.9-40.8l0,0
		c-10.5-10.5-24.8-16.9-40.8-16.9l0,0C372.9,318.1,358.5,324.6,348.1,335L348.1,335z"/>
	<path d="M112,375.8c0-43.3,35.1-78.3,78.3-78.3l0,0c43.3,0,78.3,35.1,78.3,78.3l0,0c0,43.3-35.1,78.3-78.3,78.3l0,0
		C147.1,454.1,112,419.1,112,375.8L112,375.8z M149.5,335c-10.5,10.5-16.9,24.8-16.9,40.8l0,0c0,16,6.4,30.3,16.9,40.8l0,0
		c10.5,10.5,24.8,16.9,40.8,16.9l0,0c16,0,30.3-6.4,40.8-16.9l0,0c10.5-10.5,16.9-24.8,16.9-40.8l0,0c0-16-6.4-30.3-16.9-40.8l0,0
		c-10.5-10.5-24.8-16.9-40.8-16.9l0,0C174.3,318.1,160,324.6,149.5,335L149.5,335z"/>
	<path d="M252.1,381.8c-3.3-3.4-3.2-8.9,0.3-12.1l0,0c0.3-0.3,4.3-4.1,11.1-8l0,0c6.7-3.9,16.2-7.9,27.6-7.9l0,0
		c11.4-0.1,24.4,4.5,35.9,16.1l0,0c3.4,3.4,3.4,8.8,0,12.1l0,0c-3.3,3.4-8.8,3.4-12.1,0l0,0c-8.9-8.8-16.6-11-23.7-11.1l0,0
		c-6.9,0-13.5,2.5-18.5,5.4l0,0c-4.8,2.7-8,5.5-8.3,5.8l0,0v0c-1.7,1.6-3.8,2.4-5.9,2.4l0,0C256.1,384.4,253.8,383.5,252.1,381.8
		L252.1,381.8z"/>
	<path d="M411,425.2c-5.3,0-10.3-1.6-14.6-4.3l0,0c-4.3-2.7-7.9-6.4-10.9-10.7l0,0c-5.9-8.7-9.3-20.1-9.3-32.6l0,0
		c0-9.3,1.9-18.1,5.3-25.6l0,0c3.4-7.5,8.4-13.7,14.8-17.8l0,0c4.3-2.7,9.3-4.3,14.6-4.3l0,0c5.3,0,10.3,1.6,14.6,4.3l0,0
		c4.3,2.7,7.9,6.4,10.9,10.7l0,0c5.9,8.7,9.3,20.1,9.3,32.6l0,0c0,9.3-1.9,18.1-5.3,25.6l0,0c-3.4,7.5-8.4,13.7-14.8,17.8l0,0
		C421.3,423.6,416.3,425.2,411,425.2L411,425.2C411,425.2,411,425.2,411,425.2L411,425.2z M404.3,346.8c-2.2,1.4-4.5,3.6-6.5,6.5
		l0,0c-4,5.8-6.7,14.5-6.7,24.2l0,0c0,7.3,1.5,14,4,19.4l0,0c2.5,5.4,5.8,9.3,9.2,11.3l0,0c2.2,1.4,4.4,2,6.7,2l0,0
		c2.3,0,4.4-0.6,6.7-2l0,0c2.2-1.4,4.5-3.6,6.5-6.5l0,0c4-5.8,6.7-14.5,6.7-24.2l0,0c0-7.3-1.5-14-4-19.4l0,0
		c-2.5-5.4-5.8-9.3-9.2-11.3l0,0c-2.3-1.4-4.4-2-6.7-2l0,0C408.7,344.8,406.6,345.4,404.3,346.8L404.3,346.8z"/>
	<g>
		<ellipse cx="424.6" cy="378.5" rx="10.9" ry="21.4"/>
		<path d="M415.3,394.4c-2.1-4.2-3.4-9.8-3.4-15.9l0,0c0-6.1,1.2-11.7,3.4-15.9l0,0c2.1-4.1,5.2-7.2,9.2-7.2l0,0
			c4,0,7.1,3.1,9.2,7.2l0,0c2.1,4.2,3.4,9.8,3.4,15.9l0,0c0,6.1-1.2,11.7-3.4,15.9l0,0c-2.1,4.1-5.2,7.2-9.2,7.2l0,0
			C420.6,401.5,417.4,398.5,415.3,394.4L415.3,394.4z M430.7,392.8c1.8-3.6,3-8.7,3-14.4l0,0c0-5.7-1.2-10.8-3-14.4l0,0
			c-1.8-3.6-4.2-5.4-6.1-5.3l0,0c-2,0-4.3,1.7-6.1,5.3l0,0c-1.8,3.6-3,8.7-3,14.4l0,0c0,5.7,1.2,10.8,3,14.4l0,0
			c1.8,3.6,4.2,5.4,6.1,5.3l0,0C426.5,398.2,428.9,396.4,430.7,392.8L430.7,392.8z"/>
	</g>
	<path d="M211.8,425.2c-5.3,0-10.3-1.6-14.6-4.3l0,0c-4.3-2.7-7.9-6.4-10.9-10.7l0,0c-5.9-8.7-9.3-20.1-9.3-32.6l0,0
		c0-9.3,1.9-18.1,5.3-25.6l0,0c3.4-7.5,8.4-13.7,14.8-17.8l0,0c4.3-2.7,9.3-4.3,14.6-4.3l0,0c5.3,0,10.3,1.6,14.6,4.3l0,0
		c4.3,2.7,7.9,6.4,10.9,10.7l0,0c5.9,8.7,9.3,20.1,9.3,32.6l0,0c0,9.3-1.9,18.1-5.3,25.6l0,0c-3.4,7.5-8.4,13.7-14.8,17.8l0,0
		C222.1,423.6,217.1,425.2,211.8,425.2L211.8,425.2C211.8,425.2,211.8,425.2,211.8,425.2L211.8,425.2z M205.1,346.8
		c-2.2,1.4-4.5,3.6-6.5,6.5l0,0c-4,5.8-6.7,14.5-6.7,24.2l0,0c0,7.3,1.5,14,4,19.4l0,0c2.5,5.4,5.8,9.3,9.2,11.3l0,0
		c2.3,1.4,4.4,2,6.7,2l0,0c2.3,0,4.5-0.6,6.7-2l0,0c2.2-1.4,4.5-3.6,6.5-6.5l0,0c4-5.8,6.7-14.5,6.7-24.2l0,0c0-7.3-1.5-14-4-19.4
		l0,0c-2.5-5.4-5.8-9.3-9.2-11.3l0,0c-2.2-1.4-4.4-2-6.7-2l0,0C209.5,344.8,207.3,345.4,205.1,346.8L205.1,346.8z"/>
	<g>
		<ellipse cx="225.3" cy="378.5" rx="10.9" ry="21.4"/>
		<path d="M216.1,394.4c-2.1-4.2-3.4-9.8-3.4-15.9l0,0c0-6.1,1.2-11.7,3.4-15.9l0,0c2.1-4.1,5.2-7.2,9.2-7.2l0,0
			c4,0,7.1,3.1,9.2,7.2l0,0c2.1,4.2,3.4,9.8,3.4,15.9l0,0c0,6.1-1.3,11.7-3.4,15.9l0,0c-2.1,4.1-5.2,7.2-9.2,7.2l0,0
			C221.3,401.5,218.2,398.5,216.1,394.4L216.1,394.4z M231.5,392.8c1.8-3.6,3-8.7,3-14.4l0,0c0-5.7-1.2-10.8-3-14.4l0,0
			c-1.8-3.6-4.2-5.4-6.1-5.3l0,0c-2,0-4.3,1.7-6.2,5.3l0,0c-1.8,3.6-3,8.7-3,14.4l0,0c0,5.7,1.2,10.8,3,14.4l0,0
			c1.8,3.6,4.2,5.4,6.2,5.3l0,0C227.3,398.2,229.6,396.4,231.5,392.8L231.5,392.8z"/>
	</g>
	<path d="M265.7,460.1c-3.4-1.9-6-5.3-7.1-8.7l0,0c-0.8-2.3-1-4.5-1-6.6l0,0c0-5.6,1.7-10.7,3.8-15.9l0,0c2.1-5.1,4.8-10.1,7.4-14.6
		l0,0c5.3-8.9,10.4-15.8,10.6-15.9l0,0h0c2.9-3.8,8.2-4.5,12-1.7l0,0c3.8,2.9,4.5,8.2,1.7,12l0,0c0,0-0.1,0.2-0.4,0.6l0,0
		c-0.3,0.4-0.7,1-1.3,1.8l0,0c-1.1,1.5-2.6,3.7-4.3,6.3l0,0c-3.4,5.2-7.4,12-9.9,18l0,0c-1.7,4-2.5,7.6-2.5,9.3l0,0
		c0,0.2,0,0.4,0,0.5l0,0c0.4,0.1,1.1,0.2,2.2,0.2l0,0c4.7,0,8.6,3.8,8.6,8.6l0,0c0,4.7-3.8,8.6-8.6,8.6l0,0
		C272.9,462.7,269.1,462,265.7,460.1L265.7,460.1z"/>
	<path d="M277.9,539c-3.8,0-6.9-3.1-6.9-6.9l0,0c0-3.8,3.1-6.9,6.9-6.9l0,0h51.5c3.8,0,6.9,3.1,6.9,6.9l0,0c0,3.8-3.1,6.9-6.9,6.9
		l0,0H277.9L277.9,539z"/>
	<path d="M506.5,340.5"/>
	<path d="M518.3,327.2c-6.6,6.1-11.4,12.8-11.8,13.3l0,0"/>
	<path d="M545.9,400.2"/>
	<g>
		<path class="st0" d="M423.2,191c0,0-68,76.3-224.6,76.3c0,0-111.3,33-111.3,111.3c0,0-158.7-264.5,162.8-346.9
			c0,0,171.1-30.9,218.5,49.5c0,0,47.4-19.2,87.2,36.4c0,0,69.4,125.7,15.8,247.3c0,0-12.4-81.8-73.5-38.5
			C498.1,326.4,472.7,212.3,423.2,191z"/>
		<path d="M78.4,383.9c-0.2-0.4-10.3-17.2-20.4-43.8l0,0C48,313.5,37.8,277.2,37.8,237.5l0,0c0-40.1,10.6-84,42.7-122.7l0,0
			c32-38.8,84.7-72,167-93.1l0,0l0.4-0.1l0.4-0.1c0.4-0.1,33.2-6,74.6-6l0,0c20.2,0,42.5,1.4,64.1,5.7l0,0
			c21.7,4.3,42.8,11.5,60.6,23.6l0,0c9.7,6.6,18.4,14.6,25.4,24.4l0,0c4-0.8,9.3-1.6,15.5-1.6l0,0c10,0,22.6,2,35.9,8.5l0,0
			c13.3,6.6,27.1,17.7,39.7,35.4l0,0l0.3,0.5l0.3,0.5c0.4,0.8,37.3,67.4,37.4,152.5l0,0c0,32.9-5.6,68.5-21.2,103.9l0,0l-14.3,32.5
			l-5.3-35.1c0,0,0,0,0-0.2l0,0c0-0.2-0.1-0.4-0.1-0.8l0,0c-0.1-0.7-0.3-1.7-0.6-3l0,0c-0.6-2.6-1.6-6.3-3-10.4l0,0
			c-2.8-8.1-7.5-17.5-13.5-22.6l0,0c-4-3.5-8.1-5.4-13.7-5.4l0,0c-6,0-14.7,2.5-26.4,10.7l0,0l-12.6,8.9l-3.4-15.1
			c0,0,0-0.2-0.1-0.6l0,0c-0.1-0.4-0.3-1.1-0.5-2l0,0c-0.4-1.8-1.1-4.4-1.9-7.6l0,0c-1.7-6.5-4.3-15.6-7.8-25.9l0,0
			c-6.9-20.7-17.3-46.3-30.4-65.5l0,0c-6.9-10.2-14.6-18.3-22.2-23.3l0,0c-8.1,7.5-24.7,21.1-50.7,34.6l0,0
			c-37.7,19.6-95.1,39.1-174.2,39.3l0,0c-0.3,0.1-0.7,0.2-1.1,0.4l0,0c-1.7,0.6-4.1,1.4-7.1,2.5l0,0c-6.1,2.3-14.6,5.8-23.9,10.6
			l0,0c-18.8,9.5-41,24.1-55.1,43.2l0,0c-9.4,12.8-15.3,27.2-15.4,44.3l0,0v37.2L78.4,383.9L78.4,383.9z M78.4,383.9
			c-0.2-0.4-10.3-17.2-20.4-43.8l0,0C48,313.5,37.8,277.2,37.8,237.5l0,0c0-40.1,10.6-84,42.7-122.7l0,0c32-38.8,84.7-72,167-93.1
			l0,0l0.4-0.1l0.4-0.1c0.4-0.1,33.2-6,74.6-6l0,0c20.2,0,42.5,1.4,64.1,5.7l0,0c21.7,4.3,42.8,11.5,60.6,23.6l0,0
			c9.7,6.6,18.4,14.6,25.4,24.4l0,0c4-0.8,9.3-1.6,15.5-1.6l0,0c10,0,22.6,2,35.9,8.5l0,0c13.3,6.6,27.1,17.7,39.7,35.4l0,0l0.3,0.5
			l0.3,0.5c0.4,0.8,37.3,67.4,37.4,152.5l0,0c0,32.9-5.6,68.5-21.2,103.9l0,0l-14.3,32.5l-5.3-35.1c0,0,0,0,0-0.2l0,0
			c0-0.2-0.1-0.4-0.1-0.8l0,0c-0.1-0.7-0.3-1.7-0.6-3l0,0c-0.6-2.6-1.6-6.3-3-10.4l0,0c-2.8-8.1-7.5-17.5-13.5-22.6l0,0
			c-4-3.5-8.1-5.4-13.7-5.4l0,0c-6,0-14.7,2.5-26.4,10.7l0,0l-12.6,8.9l-3.4-15.1c0,0,0-0.2-0.1-0.6l0,0c-0.1-0.4-0.3-1.1-0.5-2l0,0
			c-0.4-1.8-1.1-4.4-1.9-7.6l0,0c-1.7-6.5-4.3-15.6-7.8-25.9l0,0c-6.9-20.7-17.3-46.3-30.4-65.5l0,0c-6.9-10.2-14.6-18.3-22.2-23.3
			l0,0c-8.1,7.5-24.7,21.1-50.7,34.6l0,0c-37.7,19.6-95.1,39.1-174.2,39.3l0,0c-0.3,0.1-0.7,0.2-1.1,0.4l0,0
			c-1.7,0.6-4.1,1.4-7.1,2.5l0,0c-6.1,2.3-14.6,5.8-23.9,10.6l0,0c-18.8,9.5-41,24.1-55.1,43.2l0,0c-9.4,12.8-15.3,27.2-15.4,44.3
			l0,0v37.2L78.4,383.9L78.4,383.9z M96.4,127.9c-28.5,34.6-37.9,73-38,109.6l0,0c-0.1,43.3,13.6,83.7,24.5,109l0,0
			c3.4-8.9,8.1-17.1,13.5-24.5l0,0c11.5-15.5,26.3-27.6,40.9-37.1l0,0c29.2-18.9,57.8-27.3,58.3-27.5l0,0l1.4-0.4h1.5
			c75.4,0,129.3-18,164.6-36.1l0,0c35.3-18.1,51.9-36.3,52.3-36.7l0,0v0l4.9-5.5l6.8,2.9c15.2,6.6,27,19.2,37,33.8l0,0
			c10,14.6,18,31.4,24.5,47.5l0,0c7.4,18.5,12.7,36,15.9,47.5l0,0c9.1-4.6,17.7-6.9,25.8-6.9l0,0c11.1-0.1,20.5,4.5,27.4,10.6l0,0
			c6.4,5.7,11,12.6,14.4,19.4l0,0c6.8-23.3,9.5-46.3,9.5-68.3l0,0c0.1-74.4-31.1-135.7-34.5-142l0,0c-10.8-14.9-21.8-23.5-31.8-28.4
			l0,0c-10.1-5-19.3-6.4-26.8-6.4l0,0c-9.1,0-15.4,2.2-16.1,2.5l0,0c0,0,0,0,0,0l0,0l-8.2,3.3l-4.5-7.7
			c-5.8-9.9-13.8-17.9-23.6-24.5l0,0c-9.7-6.6-21.3-11.7-33.8-15.6l0,0c-25-7.7-53.8-10.2-79.5-10.2l0,0c-34.5,0-63.3,4.4-69.6,5.5
			l0,0c-0.4,0.1-0.7,0.1-1,0.2l0,0C173,62.1,124.9,93.4,96.4,127.9L96.4,127.9z"/>
	</g>
	<path d="M449.3,374.1c-3.8-4.2-3.5-10.7,0.7-14.5l0,0l41.2-37.6c4.2-3.8,10.7-3.5,14.6,0.7l0,0c3.8,4.2,3.5,10.7-0.7,14.5l0,0
		l-41.2,37.6c-2,1.8-4.5,2.7-6.9,2.7l0,0C454.1,377.4,451.3,376.3,449.3,374.1L449.3,374.1z"/>
	<path d="M110.2,376.9L86,365.2c-5.1-2.5-7.3-8.6-4.8-13.8l0,0c2.5-5.1,8.6-7.3,13.8-4.8l0,0l24.1,11.7c5.1,2.5,7.3,8.6,4.8,13.8
		l0,0c-1.8,3.7-5.4,5.8-9.3,5.8l0,0C113.1,378,111.6,377.6,110.2,376.9L110.2,376.9z"/>
</g>
</svg>
